<svg width="48" height="48" viewBox="0 0 48 48" fill="none" xmlns="http://www.w3.org/2000/svg">
<path d="M2 40V32C2 31.0333 2.34167 30.2083 3.025 29.525C3.70833 28.8417 4.53333 28.5 5.5 28.5H12.55C13.1167 28.5 13.6583 28.6417 14.175 28.925C14.6917 29.2083 15.1333 29.6 15.5 30.1C16.4667 31.5 17.7 32.5833 19.2 33.35C20.7 34.1167 22.3 34.5 24 34.5C25.7 34.5 27.3 34.1167 28.8 33.35C30.3 32.5833 31.55 31.5 32.55 30.1C32.9167 29.6 33.35 29.2083 33.85 28.925C34.35 28.6417 34.8833 28.5 35.45 28.5H42.5C43.4667 28.5 44.2917 28.8417 44.975 29.525C45.6583 30.2083 46 31.0333 46 32V40H33V34.05C31.8 35.15 30.425 36 28.875 36.6C27.325 37.2 25.7 37.5 24 37.5C22.3 37.5 20.6833 37.2 19.15 36.6C17.6167 36 16.2333 35.15 15 34.05V40H2ZM24 31.5C22.8333 31.5 21.7083 31.225 20.625 30.675C19.5417 30.125 18.6667 29.3667 18 28.4C17.4667 27.6333 16.825 27.0167 16.075 26.55C15.325 26.0833 14.5167 25.7667 13.65 25.6C14.6167 24.6 16.1333 23.8333 18.2 23.3C20.2667 22.7667 22.2 22.5 24 22.5C25.8 22.5 27.7417 22.7667 29.825 23.3C31.9083 23.8333 33.4333 24.6 34.4 25.6C33.5333 25.7667 32.725 26.0833 31.975 26.55C31.225 27.0167 30.5833 27.6333 30.05 28.4C29.3833 29.3667 28.5083 30.125 27.425 30.675C26.3417 31.225 25.2 31.5 24 31.5ZM8 25C6.5 25 5.20833 24.4583 4.125 23.375C3.04167 22.2917 2.5 21 2.5 19.5C2.5 17.9667 3.04167 16.6667 4.125 15.6C5.20833 14.5333 6.5 14 8 14C9.53333 14 10.8333 14.5333 11.9 15.6C12.9667 16.6667 13.5 17.9667 13.5 19.5C13.5 21 12.9667 22.2917 11.9 23.375C10.8333 24.4583 9.53333 25 8 25ZM40 25C38.5 25 37.2083 24.4583 36.125 23.375C35.0417 22.2917 34.5 21 34.5 19.5C34.5 17.9667 35.0417 16.6667 36.125 15.6C37.2083 14.5333 38.5 14 40 14C41.5333 14 42.8333 14.5333 43.9 15.6C44.9667 16.6667 45.5 17.9667 45.5 19.5C45.5 21 44.9667 22.2917 43.9 23.375C42.8333 24.4583 41.5333 25 40 25ZM24 19C22.5 19 21.2083 18.4583 20.125 17.375C19.0417 16.2917 18.5 15 18.5 13.5C18.5 11.9667 19.0417 10.6667 20.125 9.6C21.2083 8.53333 22.5 8 24 8C25.5333 8 26.8333 8.53333 27.9 9.6C28.9667 10.6667 29.5 11.9667 29.5 13.5C29.5 15 28.9667 16.2917 27.9 17.375C26.8333 18.4583 25.5333 19 24 19Z" fill="#6D92E2"/>
</svg>
